<svg width="159" height="19" viewBox="0 0 159 19" fill="none" xmlns="http://www.w3.org/2000/svg">
<path d="M5.928 18L0.432 1.248H3.24L5.904 9.528L7.512 15.36H7.608L9.24 9.528L11.904 1.248H14.64L9.072 18H5.928ZM18.2623 3.288C17.7183 3.288 17.3183 3.16 17.0623 2.904C16.8223 2.648 16.7023 2.32 16.7023 1.92V1.512C16.7023 1.112 16.8223 0.783999 17.0623 0.527999C17.3183 0.271999 17.7183 0.144 18.2623 0.144C18.8063 0.144 19.1983 0.271999 19.4383 0.527999C19.6783 0.783999 19.7983 1.112 19.7983 1.512V1.92C19.7983 2.32 19.6783 2.648 19.4383 2.904C19.1983 3.16 18.8063 3.288 18.2623 3.288ZM16.9423 5.52H19.5583V18H16.9423V5.52ZM26.7499 18C25.8379 18 25.1499 17.768 24.6859 17.304C24.2219 16.824 23.9899 16.152 23.9899 15.288V7.656H22.0459V5.52H23.1019C23.5339 5.52 23.8299 5.424 23.9899 5.232C24.1659 5.04 24.2539 4.728 24.2539 4.296V2.112H26.6059V5.52H29.2219V7.656H26.6059V15.864H29.0299V18H26.7499ZM36.8618 18.288C35.9978 18.288 35.2058 18.136 34.4858 17.832C33.7818 17.528 33.1818 17.096 32.6858 16.536C32.1898 15.96 31.8058 15.272 31.5338 14.472C31.2618 13.656 31.1258 12.752 31.1258 11.76C31.1258 10.768 31.2618 9.872 31.5338 9.072C31.8058 8.256 32.1898 7.568 32.6858 7.008C33.1818 6.432 33.7818 5.992 34.4858 5.688C35.2058 5.384 35.9978 5.232 36.8618 5.232C37.7258 5.232 38.5098 5.384 39.2138 5.688C39.9338 5.992 40.5418 6.432 41.0378 7.008C41.5338 7.568 41.9178 8.256 42.1898 9.072C42.4618 9.872 42.5978 10.768 42.5978 11.76C42.5978 12.752 42.4618 13.656 42.1898 14.472C41.9178 15.272 41.5338 15.96 41.0378 16.536C40.5418 17.096 39.9338 17.528 39.2138 17.832C38.5098 18.136 37.7258 18.288 36.8618 18.288ZM36.8618 16.128C37.7578 16.128 38.4778 15.856 39.0218 15.312C39.5658 14.752 39.8378 13.92 39.8378 12.816V10.704C39.8378 9.6 39.5658 8.776 39.0218 8.232C38.4778 7.672 37.7578 7.392 36.8618 7.392C35.9658 7.392 35.2458 7.672 34.7018 8.232C34.1578 8.776 33.8858 9.6 33.8858 10.704V12.816C33.8858 13.92 34.1578 14.752 34.7018 15.312C35.2458 15.856 35.9658 16.128 36.8618 16.128ZM45.5126 18V5.52H48.1286V7.92H48.2486C48.4246 7.28 48.7926 6.72 49.3526 6.24C49.9126 5.76 50.6886 5.52 51.6806 5.52H52.3766V8.04H51.3446C50.3046 8.04 49.5046 8.208 48.9446 8.544C48.4006 8.88 48.1286 9.376 48.1286 10.032V18H45.5126ZM60.564 1.248H66.492C67.564 1.248 68.532 1.424 69.396 1.776C70.276 2.128 71.02 2.656 71.628 3.36C72.252 4.048 72.732 4.92 73.068 5.976C73.404 7.016 73.572 8.232 73.572 9.624C73.572 11.016 73.404 12.24 73.068 13.296C72.732 14.336 72.252 15.208 71.628 15.912C71.02 16.6 70.276 17.12 69.396 17.472C68.532 17.824 67.564 18 66.492 18H60.564V1.248ZM66.492 15.6C67.74 15.6 68.748 15.208 69.516 14.424C70.284 13.64 70.668 12.488 70.668 10.968V8.28C70.668 6.76 70.284 5.608 69.516 4.824C68.748 4.04 67.74 3.648 66.492 3.648H63.276V15.6H66.492ZM76.7548 18V5.52H79.3708V7.92H79.4908C79.6668 7.28 80.0348 6.72 80.5948 6.24C81.1548 5.76 81.9308 5.52 82.9228 5.52H83.6188V8.04H82.5868C81.5468 8.04 80.7468 8.208 80.1868 8.544C79.6428 8.88 79.3708 9.376 79.3708 10.032V18H76.7548ZM93.5023 15.936H93.4063C93.2943 16.24 93.1423 16.536 92.9503 16.824C92.7743 17.112 92.5423 17.368 92.2543 17.592C91.9823 17.8 91.6463 17.968 91.2463 18.096C90.8623 18.224 90.4143 18.288 89.9023 18.288C88.6063 18.288 87.5983 17.872 86.8783 17.04C86.1743 16.208 85.8223 15.016 85.8223 13.464V5.52H88.4383V13.128C88.4383 15.064 89.2383 16.032 90.8383 16.032C91.1743 16.032 91.5023 15.992 91.8223 15.912C92.1423 15.816 92.4223 15.68 92.6623 15.504C92.9183 15.328 93.1183 15.104 93.2623 14.832C93.4223 14.56 93.5023 14.24 93.5023 13.872V5.52H96.1183V18H93.5023V15.936ZM99.8642 18V5.52H102.48V7.584H102.6C102.728 7.264 102.88 6.96 103.056 6.672C103.248 6.384 103.472 6.136 103.728 5.928C104 5.704 104.312 5.536 104.664 5.424C105.032 5.296 105.456 5.232 105.936 5.232C106.784 5.232 107.536 5.44 108.192 5.856C108.848 6.272 109.328 6.912 109.632 7.776H109.704C109.928 7.072 110.36 6.472 111 5.976C111.64 5.48 112.464 5.232 113.472 5.232C114.72 5.232 115.688 5.656 116.376 6.504C117.064 7.336 117.408 8.528 117.408 10.08V18H114.792V10.392C114.792 9.432 114.608 8.712 114.24 8.232C113.872 7.736 113.288 7.488 112.488 7.488C112.152 7.488 111.832 7.536 111.528 7.632C111.224 7.712 110.952 7.84 110.712 8.016C110.488 8.192 110.304 8.416 110.16 8.688C110.016 8.96 109.944 9.272 109.944 9.624V18H107.328V10.392C107.328 8.456 106.568 7.488 105.048 7.488C104.728 7.488 104.408 7.536 104.088 7.632C103.784 7.712 103.512 7.84 103.272 8.016C103.032 8.192 102.84 8.416 102.696 8.688C102.552 8.96 102.48 9.272 102.48 9.624V18H99.8642ZM125.924 18.288C125.06 18.288 124.268 18.136 123.548 17.832C122.844 17.528 122.244 17.096 121.748 16.536C121.252 15.96 120.868 15.272 120.596 14.472C120.324 13.656 120.188 12.752 120.188 11.76C120.188 10.768 120.324 9.872 120.596 9.072C120.868 8.256 121.252 7.568 121.748 7.008C122.244 6.432 122.844 5.992 123.548 5.688C124.268 5.384 125.06 5.232 125.924 5.232C126.788 5.232 127.572 5.384 128.276 5.688C128.996 5.992 129.604 6.432 130.1 7.008C130.596 7.568 130.98 8.256 131.252 9.072C131.524 9.872 131.66 10.768 131.66 11.76C131.66 12.752 131.524 13.656 131.252 14.472C130.98 15.272 130.596 15.96 130.1 16.536C129.604 17.096 128.996 17.528 128.276 17.832C127.572 18.136 126.788 18.288 125.924 18.288ZM125.924 16.128C126.82 16.128 127.54 15.856 128.084 15.312C128.628 14.752 128.9 13.92 128.9 12.816V10.704C128.9 9.6 128.628 8.776 128.084 8.232C127.54 7.672 126.82 7.392 125.924 7.392C125.028 7.392 124.308 7.672 123.764 8.232C123.22 8.776 122.948 9.6 122.948 10.704V12.816C122.948 13.92 123.22 14.752 123.764 15.312C124.308 15.856 125.028 16.128 125.924 16.128ZM134.575 18V5.52H137.191V7.584H137.311C137.583 6.912 137.991 6.352 138.535 5.904C139.095 5.456 139.855 5.232 140.815 5.232C142.095 5.232 143.087 5.656 143.791 6.504C144.511 7.336 144.871 8.528 144.871 10.08V18H142.255V10.416C142.255 8.464 141.471 7.488 139.903 7.488C139.567 7.488 139.231 7.536 138.895 7.632C138.575 7.712 138.287 7.84 138.031 8.016C137.775 8.192 137.567 8.416 137.407 8.688C137.263 8.96 137.191 9.28 137.191 9.648V18H134.575ZM156.345 15.936H156.225C155.953 16.672 155.505 17.248 154.881 17.664C154.273 18.08 153.553 18.288 152.721 18.288C151.137 18.288 149.913 17.72 149.049 16.584C148.185 15.432 147.753 13.824 147.753 11.76C147.753 9.696 148.185 8.096 149.049 6.96C149.913 5.808 151.137 5.232 152.721 5.232C153.553 5.232 154.273 5.44 154.881 5.856C155.505 6.256 155.953 6.832 156.225 7.584H156.345V0.24H158.961V18H156.345V15.936ZM153.513 16.032C154.313 16.032 154.985 15.84 155.529 15.456C156.073 15.056 156.345 14.536 156.345 13.896V9.624C156.345 8.984 156.073 8.472 155.529 8.088C154.985 7.688 154.313 7.488 153.513 7.488C152.601 7.488 151.873 7.784 151.329 8.376C150.785 8.952 150.513 9.72 150.513 10.68V12.84C150.513 13.8 150.785 14.576 151.329 15.168C151.873 15.744 152.601 16.032 153.513 16.032Z" fill="black"/>
</svg>
