<svg width="16" height="17" viewBox="0 0 16 17" fill="none" xmlns="http://www.w3.org/2000/svg">
<path d="M0 16.0764L1.13003 11.9481C0.432722 10.7397 0.066315 9.36984 0.0669848 7.96517C0.0689944 3.57364 3.64264 0 8.03349 0C10.1643 0.000669848 12.1644 0.830612 13.6689 2.33643C15.1727 3.84225 16.0007 5.84376 16 7.97254C15.998 12.3647 12.4243 15.9384 8.03349 15.9384C6.70049 15.9377 5.38692 15.6034 4.22339 14.9684L0 16.0764ZM4.41899 13.5262C5.54166 14.1927 6.61341 14.592 8.03081 14.5926C11.6801 14.5926 14.6529 11.6225 14.6549 7.9712C14.6563 4.31248 11.6976 1.3464 8.03617 1.34506C4.38416 1.34506 1.41338 4.31516 1.41204 7.96584C1.41137 9.45625 1.84811 10.5722 2.5816 11.7398L1.91242 14.1834L4.41899 13.5262ZM12.0466 9.8662C11.997 9.78314 11.8644 9.73357 11.6647 9.63376C11.4658 9.53395 10.4871 9.05233 10.3043 8.98602C10.1221 8.9197 9.98945 8.88621 9.85615 9.08582C9.72352 9.28477 9.34171 9.73357 9.22582 9.8662C9.10994 9.99883 8.99338 10.0156 8.79444 9.91577C8.59549 9.81596 7.95378 9.6063 7.1935 8.92774C6.60203 8.3999 6.20213 7.74814 6.08624 7.54852C5.97036 7.34958 6.07418 7.24173 6.17332 7.14259C6.26308 7.0535 6.37227 6.91016 6.47207 6.7936C6.57322 6.67839 6.60604 6.59533 6.67303 6.46203C6.73934 6.3294 6.70652 6.21284 6.65628 6.11304C6.60604 6.0139 6.20815 5.03391 6.0427 4.63535C5.8806 4.24751 5.71649 4.29976 5.59457 4.29373L5.21276 4.28703C5.08013 4.28703 4.86444 4.3366 4.68224 4.53621C4.50004 4.73583 3.9856 5.21678 3.9856 6.19677C3.9856 7.17676 4.69899 8.12325 4.79812 8.25588C4.89793 8.38851 6.20146 10.3994 8.19827 11.2615C8.6732 11.4665 9.04429 11.589 9.333 11.6808C9.80993 11.8322 10.244 11.8108 10.587 11.7599C10.9694 11.7029 11.7645 11.2782 11.9307 10.8134C12.0968 10.3478 12.0968 9.94926 12.0466 9.8662Z" fill="url(#paint0_linear_7_210)"/>
<defs>
<linearGradient id="paint0_linear_7_210" x1="8" y1="0" x2="8" y2="16.0764" gradientUnits="userSpaceOnUse">
<stop stop-color="#AEE864"/>
<stop offset="1" stop-color="#61BF35"/>
</linearGradient>
</defs>
</svg>
